<svg width="61" height="61" viewBox="0 0 61 61" fill="none" xmlns="http://www.w3.org/2000/svg">
<path d="M30.35 60.7C47.1118 60.7 60.7 47.1118 60.7 30.35C60.7 13.5882 47.1118 0 30.35 0C13.5882 0 0 13.5882 0 30.35C0 47.1118 13.5882 60.7 30.35 60.7Z" fill="white"/>
<path d="M23.47 45.12V41.12C23.4632 40.9845 23.4841 40.8491 23.5313 40.722C23.5785 40.5948 23.6511 40.4786 23.7446 40.3804C23.8382 40.2821 23.9507 40.204 24.0754 40.1506C24.2001 40.0973 24.3344 40.0698 24.47 40.07H26.47V32.26H24.47C24.2048 32.26 23.9505 32.1547 23.7629 31.9671C23.5754 31.7796 23.47 31.5252 23.47 31.26V27.47C23.4632 27.3346 23.4841 27.1991 23.5313 27.072C23.5785 26.9448 23.6511 26.8286 23.7446 26.7304C23.8382 26.6321 23.9507 26.554 24.0754 26.5006C24.2001 26.4473 24.3344 26.4198 24.47 26.42H33.24C33.3798 26.4128 33.5195 26.4351 33.6502 26.4853C33.7808 26.5355 33.8995 26.6126 33.9985 26.7116C34.0974 26.8106 34.1745 26.9292 34.2247 27.0599C34.2749 27.1905 34.2972 27.3302 34.29 27.47V40.12H36.29C36.4298 40.1128 36.5695 40.1351 36.7002 40.1853C36.8308 40.2355 36.9495 40.3126 37.0484 40.4116C37.1474 40.5106 37.2245 40.6292 37.2747 40.7598C37.3249 40.8905 37.3472 41.0302 37.34 41.17V45.17C37.3472 45.3098 37.3249 45.4495 37.2747 45.5802C37.2245 45.7108 37.1474 45.8295 37.0484 45.9284C36.9495 46.0274 36.8308 46.1045 36.7002 46.1547C36.5695 46.205 36.4298 46.2272 36.29 46.22H24.47C24.3298 46.2207 24.1911 46.1919 24.0627 46.1355C23.9344 46.0792 23.8194 45.9964 23.7251 45.8927C23.6308 45.789 23.5593 45.6666 23.5154 45.5335C23.4714 45.4004 23.456 45.2595 23.47 45.12Z" fill="black"/>
<path d="M30.35 23.77C33.2329 23.77 35.57 21.4329 35.57 18.55C35.57 15.667 33.2329 13.33 30.35 13.33C27.4671 13.33 25.13 15.667 25.13 18.55C25.13 21.4329 27.4671 23.77 30.35 23.77Z" fill="black"/>
</svg>
