<svg width="44" height="44" viewBox="0 0 44 44" fill="none" xmlns="http://www.w3.org/2000/svg">
<path d="M22 44C34.1503 44 44 34.1503 44 22C44 9.84974 34.1503 0 22 0C9.84974 0 0 9.84974 0 22C0 34.1503 9.84974 44 22 44Z" fill="#3A7D64"/>
<path d="M17.0129 32.7064V29.8069C17.0079 29.7087 17.0231 29.6105 17.0573 29.5184C17.0915 29.4262 17.1441 29.3419 17.2119 29.2707C17.2797 29.1996 17.3613 29.1429 17.4517 29.1042C17.5421 29.0655 17.6394 29.0457 17.7377 29.0458H19.1875V23.3845H17.7377C17.5455 23.3845 17.3611 23.3081 17.2252 23.1722C17.0892 23.0362 17.0129 22.8519 17.0129 22.6596V19.9123C17.0079 19.8141 17.0231 19.716 17.0573 19.6238C17.0915 19.5316 17.1441 19.4474 17.2119 19.3762C17.2797 19.305 17.3613 19.2483 17.4517 19.2097C17.5421 19.171 17.6394 19.1511 17.7377 19.1512H24.0949C24.1962 19.146 24.2975 19.1621 24.3922 19.1985C24.4869 19.2349 24.5729 19.2908 24.6447 19.3626C24.7164 19.4343 24.7723 19.5203 24.8087 19.615C24.8451 19.7097 24.8612 19.811 24.856 19.9123V29.082H26.3058C26.4071 29.0768 26.5084 29.093 26.6031 29.1294C26.6978 29.1658 26.7838 29.2216 26.8555 29.2934C26.9273 29.3651 26.9831 29.4511 27.0195 29.5458C27.056 29.6405 27.0721 29.7418 27.0669 29.8432V32.7427C27.0721 32.844 27.056 32.9453 27.0195 33.04C26.9831 33.1347 26.9273 33.2207 26.8555 33.2924C26.7838 33.3642 26.6978 33.42 26.6031 33.4565C26.5084 33.4929 26.4071 33.509 26.3058 33.5038H17.7377C17.6361 33.5043 17.5355 33.4834 17.4425 33.4425C17.3495 33.4017 17.2661 33.3417 17.1977 33.2665C17.1294 33.1913 17.0776 33.1026 17.0457 33.0061C17.0139 32.9096 17.0027 32.8075 17.0129 32.7064Z" fill="white"/>
<path d="M22 17.2303C24.0897 17.2303 25.7838 15.5362 25.7838 13.4465C25.7838 11.3567 24.0897 9.6626 22 9.6626C19.9102 9.6626 18.2161 11.3567 18.2161 13.4465C18.2161 15.5362 19.9102 17.2303 22 17.2303Z" fill="white"/>
</svg>
