<svg width="44" height="44" viewBox="0 0 44 44" fill="none" xmlns="http://www.w3.org/2000/svg">
<path d="M22 44C34.1503 44 44 34.1503 44 22C44 9.84974 34.1503 0 22 0C9.84974 0 0 9.84974 0 22C0 34.1503 9.84974 44 22 44Z" fill="#E40037"/>
<path d="M19.256 24H23.747C23.9305 24 24.1065 23.9283 24.2363 23.8006C24.3661 23.673 24.439 23.4999 24.439 23.3194L24.9995 11.7487C25.0032 11.6523 24.9872 11.5561 24.9524 11.4658C24.9177 11.3756 24.8648 11.2931 24.7971 11.2233C24.7293 11.1535 24.648 11.0978 24.558 11.0594C24.4679 11.0211 24.371 11.0009 24.2729 11H18.6955C18.5985 10.9995 18.5024 11.0191 18.4136 11.0575C18.3248 11.0959 18.2452 11.1522 18.1799 11.2228C18.1147 11.2934 18.0653 11.3767 18.0349 11.4673C18.0044 11.5579 17.9938 11.6538 18.0035 11.7487L18.5571 23.3194C18.5656 23.4983 18.6422 23.6676 18.7716 23.7937C18.9011 23.9197 19.0739 23.9934 19.256 24Z" fill="white"/>
<path d="M21.5 34C23.7091 34 25.5 32.2091 25.5 30C25.5 27.7909 23.7091 26 21.5 26C19.2909 26 17.5 27.7909 17.5 30C17.5 32.2091 19.2909 34 21.5 34Z" fill="white"/>
</svg>
