<svg width="50" height="44" viewBox="0 0 50 44" fill="none" xmlns="http://www.w3.org/2000/svg">
<path d="M28.3597 1.97233L49.3518 38.0365C49.7032 38.6393 49.8894 39.3242 49.8915 40.022C49.8936 40.7198 49.7116 41.4058 49.3638 42.0107C49.016 42.6157 48.5148 43.1181 47.9107 43.4674C47.3066 43.8167 46.6211 44.0004 45.9233 44H3.96822C3.27043 44.0004 2.5849 43.8167 1.98082 43.4674C1.37674 43.1181 0.875512 42.6157 0.527726 42.0107C0.17994 41.4058 -0.0020989 40.7198 1.82585e-05 40.022C0.00213542 39.3242 0.188334 38.6393 0.539785 38.0365L21.5028 1.97233C21.8517 1.37232 22.352 0.874371 22.9536 0.528262C23.5552 0.182153 24.2372 0 24.9313 0C25.6253 0 26.3073 0.182153 26.9089 0.528262C27.5105 0.874371 28.0108 1.37232 28.3597 1.97233V1.97233Z" fill="#ECB720"/>
<path d="M22.585 28.9933H27.2774C27.47 28.9933 27.6548 28.9167 27.791 28.7805C27.9272 28.6443 28.0037 28.4596 28.0037 28.2669L28.5921 15.9186C28.6028 15.8142 28.5906 15.7087 28.5566 15.6094C28.5225 15.5101 28.4674 15.4193 28.3949 15.3433C28.3224 15.2674 28.2343 15.2081 28.1367 15.1695C28.0391 15.1308 27.9342 15.1138 27.8294 15.1196H22.0112C21.9094 15.1191 21.8086 15.14 21.7154 15.181C21.6221 15.2219 21.5386 15.282 21.4701 15.3574C21.4016 15.4327 21.3497 15.5216 21.3178 15.6183C21.2859 15.715 21.2747 15.8173 21.2848 15.9186L21.8659 28.2669C21.8746 28.4555 21.953 28.6342 22.0858 28.7684C22.2187 28.9025 22.3965 28.9827 22.585 28.9933V28.9933Z" fill="white"/>
<path d="M24.924 38.4506C27.1464 38.4506 28.9481 36.6489 28.9481 34.4265C28.9481 32.2041 27.1464 30.4024 24.924 30.4024C22.7015 30.4024 20.8999 32.2041 20.8999 34.4265C20.8999 36.6489 22.7015 38.4506 24.924 38.4506Z" fill="white"/>
</svg>
