<svg width="26" height="19" viewBox="0 0 26 19" fill="none" xmlns="http://www.w3.org/2000/svg">
<path d="M6.64 18.48C5.48 18.48 4.42 18.18 3.46 17.58C2.54 16.94 1.8 16.08 1.24 15C0.68 13.88 0.4 12.6 0.4 11.16C0.4 9.96 0.64 8.8 1.12 7.68C1.6 6.52 2.26 5.44 3.1 4.44C3.94 3.44 4.94 2.56 6.1 1.8C7.26 0.999999 8.5 0.419999 9.82 0.0599992L12.46 3.24C10.82 3.96 9.48 4.82 8.44 5.82C7.44 6.82 6.94 7.68 6.94 8.4C6.94 8.88 7.1 9.32 7.42 9.72C7.78 10.12 8.22 10.5 8.74 10.86C9.66 11.58 10.28 12.24 10.6 12.84C10.96 13.4 11.14 14.02 11.14 14.7C11.14 15.86 10.72 16.78 9.88 17.46C9.04 18.14 7.96 18.48 6.64 18.48ZM20.02 18.48C18.86 18.48 17.8 18.18 16.84 17.58C15.92 16.94 15.18 16.08 14.62 15C14.06 13.88 13.78 12.6 13.78 11.16C13.78 9.96 14.02 8.8 14.5 7.68C14.98 6.52 15.64 5.44 16.48 4.44C17.32 3.44 18.32 2.56 19.48 1.8C20.64 0.999999 21.88 0.419999 23.2 0.0599992L25.84 3.24C24.2 3.96 22.86 4.82 21.82 5.82C20.82 6.82 20.32 7.68 20.32 8.4C20.32 8.88 20.48 9.32 20.8 9.72C21.16 10.12 21.6 10.5 22.12 10.86C23.04 11.58 23.66 12.24 23.98 12.84C24.34 13.4 24.52 14.02 24.52 14.7C24.52 15.86 24.1 16.78 23.26 17.46C22.42 18.14 21.34 18.48 20.02 18.48Z" fill="#E40037"/>
</svg>
