<svg width="43" height="36" viewBox="0 0 43 36" fill="none" xmlns="http://www.w3.org/2000/svg">
<g clip-path="url(#clip0_140_4771)">
<path d="M42.81 4.23984C41.4193 4.83835 39.9573 5.25512 38.46 5.47985C39.16 5.35985 40.19 4.08984 40.6 3.57984C41.2443 2.8037 41.7332 1.9108 42.04 0.949849C42.04 0.879849 42.11 0.779848 42.04 0.729848C42.0042 0.712208 41.9648 0.703023 41.925 0.703023C41.8851 0.703023 41.8457 0.712208 41.81 0.729848C40.1842 1.61027 38.4538 2.28223 36.66 2.72985C36.5965 2.74772 36.5295 2.74783 36.466 2.7302C36.4025 2.71257 36.3451 2.67786 36.3 2.62984C36.1628 2.46446 36.0123 2.31062 35.85 2.16985C35.105 1.53289 34.2648 1.01661 33.36 0.639836C32.1459 0.149235 30.8363 -0.0593258 29.5299 0.029851C28.2601 0.10539 27.0202 0.446035 25.89 1.02985C24.7611 1.62347 23.7643 2.43992 22.96 3.42984C22.124 4.45205 21.5261 5.64768 21.21 6.92984C20.9405 8.1457 20.91 9.40233 21.12 10.6298C21.12 10.8398 21.12 10.8698 20.94 10.8398C13.86 9.83985 7.98996 7.24985 3.22996 1.83985C3.01996 1.60985 2.90997 1.60985 2.73997 1.83985C0.659968 4.96985 1.67 9.98985 4.27 12.4498C4.62 12.7798 4.97996 13.1098 5.35996 13.4498C4.16471 13.3478 3.00194 13.0078 1.93998 12.4498C1.73998 12.3198 1.62996 12.3998 1.60996 12.6298C1.60205 12.9643 1.62212 13.2988 1.66996 13.6298C1.87961 15.2241 2.50843 16.7342 3.49223 18.0061C4.47602 19.278 5.77962 20.2662 7.27 20.8698C7.63215 21.0268 8.01139 21.1409 8.4 21.2098C7.29715 21.4319 6.16501 21.4691 5.04997 21.3198C4.80997 21.3198 4.70998 21.3898 4.80998 21.6298C6.27998 25.6298 9.46998 26.8399 11.81 27.5299C12.13 27.5799 12.45 27.5798 12.81 27.6598C12.81 27.6598 12.81 27.6598 12.75 27.7098C11.96 28.9198 9.21998 29.8198 7.93998 30.2598C5.60246 31.0941 3.1126 31.4147 0.639993 31.1999C0.249993 31.1399 0.159976 31.1399 0.0599757 31.1999C-0.0400243 31.2598 0.0599611 31.3598 0.169961 31.4598C0.669961 31.7898 1.16998 32.0798 1.68998 32.3598C3.23809 33.1914 4.87512 33.8456 6.56999 34.3098C15.35 36.7398 25.23 34.9598 31.82 28.4098C37 23.2698 38.82 16.1798 38.82 9.07984C38.82 8.79984 39.1499 8.64984 39.3399 8.49984C40.6537 7.48294 41.8125 6.28036 42.7799 4.92984C42.9291 4.73455 43.01 4.4956 43.01 4.24984C42.99 4.12984 42.98 4.15984 42.81 4.23984Z" fill="white"/>
</g>
<defs>
<clipPath id="clip0_140_4771">
<rect width="42.99" height="35.38" fill="white"/>
</clipPath>
</defs>
</svg>
