<svg width="69" height="61" viewBox="0 0 69 61" fill="none" xmlns="http://www.w3.org/2000/svg">
<path d="M39.0431 2.71533L67.9431 52.3653C68.4269 53.1952 68.6833 54.1381 68.6862 55.0988C68.6891 56.0594 68.4385 57.0038 67.9597 57.8367C67.4809 58.6695 66.7908 59.3612 65.9592 59.8421C65.1275 60.323 64.1838 60.5759 63.2231 60.5753H5.4631C4.50245 60.5759 3.55866 60.323 2.72701 59.8421C1.89537 59.3612 1.20527 58.6695 0.726466 57.8367C0.247665 57.0038 -0.00288957 56.0594 2.51427e-05 55.0988C0.00293986 54.1381 0.259221 53.1952 0.743067 52.3653L29.6031 2.71533C30.0835 1.88928 30.7722 1.20376 31.6004 0.727264C32.4287 0.250772 33.3675 0 34.3231 0C35.2786 0 36.2175 0.250772 37.0457 0.727264C37.874 1.20376 38.5627 1.88928 39.0431 2.71533V2.71533Z" fill="white"/>
<path d="M31.0931 39.9153H37.543C37.8043 39.9032 38.0517 39.7939 38.2366 39.6089C38.4216 39.4239 38.5309 39.1766 38.543 38.9153L39.3531 21.9153C39.3585 21.7736 39.3353 21.6323 39.285 21.4997C39.2348 21.3671 39.1585 21.246 39.0606 21.1434C38.9627 21.0408 38.8452 20.9589 38.7151 20.9026C38.585 20.8462 38.4448 20.8166 38.3031 20.8153H30.3231C30.1829 20.8146 30.0441 20.8434 29.9158 20.8998C29.7874 20.9562 29.6724 21.0389 29.5781 21.1426C29.4838 21.2463 29.4124 21.3687 29.3684 21.5018C29.3245 21.635 29.3091 21.7759 29.3231 21.9153L30.1231 38.9153C30.1346 39.1718 30.2396 39.4151 30.4183 39.5993C30.5971 39.7836 30.8371 39.896 31.0931 39.9153Z" fill="black"/>
<path d="M34.3131 52.9353C37.3727 52.9353 39.8531 50.455 39.8531 47.3954C39.8531 44.3357 37.3727 41.8553 34.3131 41.8553C31.2534 41.8553 28.7731 44.3357 28.7731 47.3954C28.7731 50.455 31.2534 52.9353 34.3131 52.9353Z" fill="black"/>
</svg>
