<svg width="44" height="44" viewBox="0 0 44 44" fill="none" xmlns="http://www.w3.org/2000/svg">
<g clip-path="url(#clip0_181_5027)">
<path d="M21.9964 43.9928C34.1446 43.9928 43.9928 34.1446 43.9928 21.9964C43.9928 9.84811 34.1446 0 21.9964 0C9.84811 0 0 9.84811 0 21.9964C0 34.1446 9.84811 43.9928 21.9964 43.9928Z" fill="white"/>
<path d="M19.6265 23.9532H24.3301C24.5223 23.9532 24.7067 23.8769 24.8426 23.7409C24.9785 23.605 25.0549 23.4207 25.0549 23.2285L25.6419 10.9076C25.6458 10.8049 25.6291 10.7025 25.5926 10.6064C25.5562 10.5103 25.5009 10.4225 25.4299 10.3481C25.359 10.2738 25.2738 10.2144 25.1795 10.1736C25.0852 10.1328 24.9837 10.1113 24.8809 10.1104H19.0394C18.9378 10.1099 18.8372 10.1307 18.7442 10.1716C18.6512 10.2125 18.5678 10.2724 18.4995 10.3476C18.4311 10.4228 18.3794 10.5115 18.3475 10.6079C18.3157 10.7044 18.3045 10.8065 18.3146 10.9076L18.8944 23.2285C18.9034 23.419 18.9836 23.5993 19.1192 23.7335C19.2547 23.8678 19.4358 23.9462 19.6265 23.9532V23.9532Z" fill="black"/>
<path d="M21.9674 33.3968C24.1849 33.3968 25.9825 31.5991 25.9825 29.3816C25.9825 27.1641 24.1849 25.3665 21.9674 25.3665C19.7499 25.3665 17.9522 27.1641 17.9522 29.3816C17.9522 31.5991 19.7499 33.3968 21.9674 33.3968Z" fill="black"/>
</g>
<defs>
<clipPath id="clip0_181_5027">
<rect width="44" height="44" fill="white"/>
</clipPath>
</defs>
</svg>
