<svg width="36" height="30" viewBox="0 0 36 30" fill="none" xmlns="http://www.w3.org/2000/svg">
<path d="M35.95 9.2851C35.95 6.82254 35.1187 4.46085 33.639 2.71956C32.1594 0.978266 30.1526 0 28.06 0H7.88995C5.7974 0 3.79058 0.978266 2.31091 2.71956C0.831251 4.46085 0 6.82254 0 9.2851V20.3354C0 22.7979 0.831251 25.1596 2.31091 26.9009C3.79058 28.6422 5.7974 29.6205 7.88995 29.6205H28.06C30.1526 29.6205 32.1594 28.6422 33.639 26.9009C35.1187 25.1596 35.95 22.7979 35.95 20.3354V9.2851ZM24.09 15.6399L15.09 20.9003C14.73 21.1356 13.53 20.8297 13.53 20.3589V9.544C13.53 9.06151 14.74 8.75554 15.1 9.00268L23.7599 14.5455C24.0699 14.7808 24.45 15.4045 24.09 15.6399Z" fill="white"/>
</svg>
