<?xml version="1.0" encoding="UTF-8"?><svg id="Layer_1" xmlns="http://www.w3.org/2000/svg" viewBox="0 0 210.09 27.23"><defs><style>.cls-1{fill:#fff;}</style></defs><g><path class="cls-1" d="M10.06,11.2c-.77,.23-1.3,.47-1.95,.62-.28,.07-.65-.23-.75-.51-.2-.59-.24-1.27-.47-1.79-.36-.35-1.62,.09-1.62,.57,.16,.56,.57,1.24,.8,1.9,.07,.2,.06,.39,.01,.59-.09,.41-.34,.74-.71,.92-.69,.34-1.4,.56-2.15,.76-1.02,.26-1.98,.53-2.97,.85-.07,.02-.13,.09-.14,.16-.15,.52-.07,.93,.18,1.4,.17,.32,.48,.81,.8,.7,1.23-.54,2.36-1.15,3.59-1.68,.6-.26,1.19-.62,1.88-.51,.37,.05,.75,.26,.89,.62,.24,.63,.52,1.87,.53,1.88,.22,.47,1.72-.07,1.66-.47,0-.02-.59-1.24-.75-1.65-.14-.35,.18-.82,.52-.92,2.57-.74,5.2-.86,7.85-.65,.52,.04,1.03,.07,1.57,.17,.55,.11,1.06,.2,1.61,.31,.73,.14,1.23,.37,1.96,.52,.17,.05,.2-.1,.22-.18l.03-.08c.42-2.83,5.39-.96,3.81,1.54,0,0-.03,.06-.04,.09-.04,.08,.02,.13,.02,.13,.49,.34,.98,.63,1.55,.99,.04,.02,.11,.08,.16,.04,.25-.17,.34-.46,.55-.66,.23-.22,.48-.4,.77-.56,1.23-.65,2.46-1.12,3.73-1.62,.01,0,.02-.08,0-.1-9.99-6.62-19.18-4.53-23.09-3.41l-.07,.03Z"/><path class="cls-1" d="M10.14,1.8c-.77,.23-1.31,.47-1.95,.62-.28,.07-.65-.23-.74-.51-.2-.59-.25-1.27-.47-1.79-.36-.36-1.62,.08-1.62,.57,.16,.56,.57,1.23,.8,1.9,.07,.19,.06,.39,.01,.59-.09,.41-.34,.75-.71,.92-.69,.34-1.4,.56-2.15,.76-1.01,.27-1.97,.54-2.96,.85-.07,.03-.13,.09-.15,.16-.15,.53-.07,.93,.18,1.4,.17,.32,.47,.81,.79,.7,1.23-.54,2.36-1.14,3.6-1.68,.6-.26,1.2-.62,1.88-.52,.37,.05,.76,.26,.9,.62,.24,.62,.51,1.87,.53,1.88,.22,.47,1.71-.07,1.66-.48,0-.01-.6-1.24-.76-1.65-.13-.35,.18-.82,.53-.92,2.57-.74,5.2-.86,7.85-.65,.52,.04,1.03,.07,1.56,.17,.56,.1,1.06,.2,1.62,.3,.73,.14,1.23,.36,1.97,.52,.16,.05,.2-.11,.21-.17l.03-.08c.42-2.83,5.39-.96,3.81,1.54,0,0-.03,.07-.04,.08-.04,.09,.02,.14,.02,.14,.49,.34,.98,.63,1.55,.99,.04,.03,.11,.08,.16,.04,.26-.17,.34-.45,.55-.65,.23-.22,.48-.41,.77-.56,1.23-.65,2.46-1.13,3.73-1.62,.02,0,.02-.09,0-.1C23.3-1.44,14.12,.65,10.2,1.78l-.07,.02Z"/><path class="cls-1" d="M10.02,20.57c-.78,.23-1.3,.47-1.95,.62-.28,.06-.65-.22-.75-.51-.2-.59-.25-1.27-.47-1.79-.36-.35-1.62,.09-1.62,.57,.16,.56,.57,1.23,.8,1.9,.07,.19,.06,.39,.01,.58-.09,.42-.33,.75-.71,.93-.69,.34-1.4,.56-2.15,.76-1.02,.26-1.97,.53-2.96,.85-.07,.02-.13,.09-.15,.15-.15,.52-.07,.93,.19,1.4,.17,.32,.47,.81,.8,.7,1.22-.54,2.36-1.15,3.59-1.68,.6-.26,1.19-.61,1.89-.52,.37,.05,.75,.26,.89,.63,.24,.62,.52,1.86,.53,1.88,.21,.47,1.71-.07,1.66-.48,0-.01-.6-1.24-.75-1.65-.14-.35,.18-.82,.52-.92,2.57-.74,5.2-.86,7.85-.65,.53,.04,1.03,.07,1.57,.17,.55,.11,1.06,.2,1.61,.31,.73,.13,1.23,.37,1.97,.52,.16,.05,.2-.1,.21-.17l.03-.08c.42-2.82,5.39-.96,3.81,1.54,0,0-.03,.07-.04,.09-.04,.08,.02,.13,.02,.13,.49,.35,.98,.63,1.55,1,.04,.02,.11,.07,.16,.04,.26-.17,.34-.45,.55-.65,.23-.22,.48-.41,.77-.56,1.22-.65,2.46-1.13,3.73-1.63,.01,0,.02-.08,0-.1-9.99-6.62-19.18-4.53-23.09-3.4l-.06,.02Z"/></g><g><polygon class="cls-1" points="42.69 7.14 52.74 7.14 52.74 8.89 44.6 8.89 44.6 12.88 52.13 12.88 52.13 14.64 44.6 14.64 44.6 19.13 52.85 19.13 52.85 20.89 42.69 20.89 42.69 7.14"/><path class="cls-1" d="M58.79,15.02c2.46,.57,3.15,1.41,3.15,2.83,0,1.83-1.43,3.34-4.07,3.34-3.17,0-4.16-1.7-4.16-3.57h1.72c.04,.96,.38,2.01,2.67,2.01,1.3,0,2.08-.61,2.08-1.51,0-.65-.4-1.05-1.58-1.34l-1.95-.46c-1.45-.32-2.64-.92-2.64-2.67s1.28-3.04,3.82-3.04c2.77,0,3.84,1.7,3.84,3.21h-1.72c-.09-.76-.48-1.64-2.23-1.64-1.26,0-1.95,.65-1.95,1.35,0,.75,.69,.97,1.68,1.19l1.34,.3Z"/><path class="cls-1" d="M67.61,15.02c2.46,.57,3.15,1.41,3.15,2.83,0,1.83-1.43,3.34-4.07,3.34-3.17,0-4.16-1.7-4.16-3.57h1.72c.04,.96,.38,2.01,2.67,2.01,1.3,0,2.08-.61,2.08-1.51,0-.65-.4-1.05-1.58-1.34l-1.95-.46c-1.45-.32-2.64-.92-2.64-2.67s1.28-3.04,3.82-3.04c2.77,0,3.84,1.7,3.84,3.21h-1.72c-.09-.76-.48-1.64-2.23-1.64-1.26,0-1.95,.65-1.95,1.35,0,.75,.69,.97,1.68,1.19l1.33,.3Z"/><path class="cls-1" d="M78.94,14.93c-.02-1.03-.69-2.75-2.64-2.75-1.59,0-2.54,.78-2.79,2.75h5.42Zm1.66,2.65c-.13,1.49-1.43,3.61-4.3,3.61s-4.62-2-4.62-5.29,1.62-5.29,4.62-5.29c2.73,0,4.43,1.8,4.43,4.77,0,.35-.02,.69-.04,.99h-7.18c.06,2.33,1.3,3.25,2.79,3.25,1.74,0,2.33-1.26,2.58-2.04h1.72Z"/><polygon class="cls-1" points="83.81 15.77 80.48 10.92 82.66 10.92 84.89 14.39 87.13 10.92 89.3 10.92 85.98 15.77 89.56 20.88 87.38 20.88 84.89 17.07 82.41 20.88 80.23 20.88 83.81 15.77"/><path class="cls-1" d="M105.29,15.73c-.27,2.18-1.57,5.46-5.86,5.46-3.8,0-6.28-2.73-6.28-7.18s2.48-7.18,6.28-7.18c4.64,0,5.75,3.22,5.86,4.66h-1.91c-.29-1.11-1.09-2.87-3.76-2.87s-4.45,2.06-4.45,5.39,1.66,5.38,4.45,5.38,3.49-2.25,3.76-3.66h1.91Z"/><path class="cls-1" d="M106.01,15.9c0-3.28,1.62-5.29,4.62-5.29s4.62,2.01,4.62,5.29-1.63,5.29-4.62,5.29-4.62-2-4.62-5.29m4.62,3.72c1.64,0,2.79-1.07,2.79-3.72s-1.15-3.72-2.79-3.72-2.79,1.07-2.79,3.72,1.15,3.72,2.79,3.72"/><path class="cls-1" d="M122.95,19.64c-.54,.46-1.44,1.55-3.48,1.55-1.83,0-2.98-1.03-2.98-3.63v-6.65h1.76v6.66c0,1.07,.48,1.97,1.85,1.97s2.77-.88,2.77-2.62v-6.01h1.76v9.97h-1.68v-1.24Z"/><path class="cls-1" d="M126.4,10.92h1.68v1.24c.54-.46,1.43-1.55,3.48-1.55,1.72,0,2.98,1.03,2.98,3.63v6.65h-1.76v-6.66c0-1.03-.55-1.97-1.85-1.97-1.43,0-2.77,.94-2.77,2.61v6.02h-1.76V10.92Z"/><path class="cls-1" d="M139.89,21.02c-.29,0-.71,.04-1.16,.04-1.78,0-2.27-.59-2.27-2.54v-6.15h-1.32v-1.45h1.32v-2.67h1.76v2.67h1.64v1.45h-1.64v5.92c0,.97,.31,1.21,.96,1.21,.21,0,.55-.04,.73-.04v1.57Z"/><path class="cls-1" d="M145.75,21.97c-.97,2.71-1.81,2.96-2.9,2.96-.42,0-.84-.08-1.24-.15v-1.6c.31,.09,.69,.15,1.05,.15,.96,0,1.28-1.11,1.68-2.25l-3.69-10.16h1.91l2.67,7.89h.04l2.62-7.89h1.87l-4.01,11.06Z"/><path class="cls-1" d="M165.72,15.73c-.27,2.18-1.57,5.46-5.87,5.46-3.81,0-6.29-2.73-6.29-7.18s2.48-7.18,6.29-7.18c4.64,0,5.75,3.22,5.87,4.66h-1.91c-.29-1.11-1.09-2.87-3.77-2.87s-4.46,2.06-4.46,5.39,1.67,5.38,4.46,5.38,3.5-2.25,3.77-3.66h1.91Z"/><path class="cls-1" d="M166.46,15.9c0-3.28,1.62-5.29,4.62-5.29s4.62,2.01,4.62,5.29-1.62,5.29-4.62,5.29-4.62-2-4.62-5.29m4.62,3.72c1.64,0,2.79-1.07,2.79-3.72s-1.14-3.72-2.79-3.72-2.79,1.07-2.79,3.72,1.15,3.72,2.79,3.72"/><path class="cls-1" d="M183.23,19.64c-.54,.46-1.43,1.55-3.48,1.55-1.83,0-2.98-1.03-2.98-3.63v-6.65h1.76v6.66c0,1.07,.48,1.97,1.85,1.97s2.77-.88,2.77-2.62v-6.01h1.76v9.97h-1.68v-1.24Z"/><path class="cls-1" d="M186.41,10.92h1.68v1.24c.53-.46,1.43-1.55,3.48-1.55,1.72,0,2.98,1.03,2.98,3.63v6.65h-1.76v-6.66c0-1.03-.55-1.97-1.85-1.97-1.43,0-2.77,.94-2.77,2.61v6.02h-1.76V10.92Z"/><path class="cls-1" d="M204.14,17.29c-.1,1.87-1.38,3.9-4.05,3.9-3,0-4.62-2-4.62-5.29s1.62-5.29,4.62-5.29,3.99,2.14,3.99,3.74h-1.72c-.08-.92-.55-2.17-2.27-2.17s-2.79,1.07-2.79,3.72,1.15,3.72,2.79,3.72,2.2-1.58,2.33-2.33h1.72Z"/><path class="cls-1" d="M205.03,10.92h1.76v9.97h-1.76V10.92Zm0-3.78h1.76v1.95h-1.76v-1.95Z"/><rect class="cls-1" x="208.33" y="7.14" width="1.76" height="13.75"/></g></svg>