<?xml version="1.0" encoding="UTF-8"?>
<svg id="Layer_1" data-name="Layer 1" xmlns="http://www.w3.org/2000/svg" viewBox="0 0 299.32 38.79">
  <defs>
    <style>
      .cls-1 {
        fill: #e30137;
      }
    </style>
  </defs>
  <g>
    <path class="cls-1" d="m14.33,15.95c-1.1.33-1.86.67-2.78.89-.4.09-.92-.32-1.07-.73-.28-.83-.34-1.8-.67-2.55-.51-.5-2.3.12-2.31.81.23.8.81,1.76,1.14,2.71.09.28.08.56.02.84-.13.58-.48,1.06-1.01,1.32-.99.49-1.99.8-3.07,1.08-1.45.38-2.82.76-4.23,1.21-.1.03-.18.12-.2.22-.21.74-.1,1.33.26,2,.25.45.68,1.15,1.14.99,1.75-.77,3.36-1.63,5.12-2.4.86-.36,1.7-.88,2.69-.73.53.08,1.07.37,1.27.89.35.89.74,2.66.75,2.69.31.67,2.44-.09,2.36-.68,0-.02-.85-1.77-1.07-2.35-.2-.5.25-1.16.74-1.31,3.66-1.06,7.41-1.23,11.18-.93.75.06,1.47.1,2.23.24.79.15,1.51.29,2.3.44,1.04.19,1.75.52,2.8.75.24.07.29-.15.31-.25l.04-.12c.6-4.03,7.68-1.36,5.43,2.2,0,0-.04.09-.05.12-.06.12.02.19.02.19.7.49,1.4.9,2.22,1.41.06.03.15.11.23.05.36-.25.49-.65.79-.93.33-.32.69-.57,1.09-.79,1.75-.92,3.5-1.6,5.31-2.32.02,0,.03-.11,0-.14-14.23-9.44-27.32-6.46-32.9-4.85l-.1.04Z"/>
    <path class="cls-1" d="m14.44,2.57c-1.1.33-1.86.67-2.78.89-.4.1-.92-.33-1.06-.72-.28-.83-.35-1.8-.67-2.54-.51-.51-2.3.12-2.31.81.23.8.82,1.76,1.15,2.7.09.28.08.55.02.84-.13.59-.48,1.06-1.01,1.32-.99.49-2,.8-3.07,1.08-1.44.39-2.81.76-4.22,1.21-.1.04-.18.13-.21.23-.21.75-.09,1.33.26,2,.24.46.67,1.15,1.13.99,1.75-.77,3.36-1.63,5.13-2.39.85-.38,1.7-.88,2.68-.74.53.08,1.08.37,1.28.89.34.89.73,2.66.75,2.68.31.67,2.44-.09,2.36-.68,0-.02-.85-1.76-1.08-2.35-.19-.5.26-1.17.75-1.31,3.66-1.06,7.41-1.22,11.18-.92.74.06,1.47.1,2.22.24.8.14,1.51.28,2.3.43,1.04.19,1.75.52,2.81.75.23.07.28-.15.3-.24l.04-.12c.6-4.03,7.68-1.36,5.43,2.19,0,0-.04.1-.05.12-.06.12.03.2.03.2.7.49,1.4.89,2.21,1.41.06.04.15.11.23.05.36-.24.49-.64.79-.92.33-.32.69-.58,1.09-.79,1.75-.92,3.5-1.6,5.31-2.31.02-.01.03-.13,0-.15C33.2-2.05,20.11.93,14.54,2.53l-.1.03Z"/>
    <path class="cls-1" d="m14.28,29.3c-1.11.33-1.86.67-2.78.89-.4.09-.93-.32-1.06-.73-.29-.84-.35-1.81-.67-2.55-.51-.5-2.31.12-2.31.82.23.8.82,1.75,1.15,2.71.1.27.08.55.02.83-.13.6-.48,1.07-1.01,1.33-.99.48-1.99.8-3.07,1.08-1.45.38-2.81.76-4.22,1.21-.1.03-.18.12-.21.22-.21.74-.09,1.32.26,1.99.25.46.67,1.15,1.14.99,1.74-.77,3.36-1.63,5.12-2.4.85-.37,1.7-.88,2.69-.74.52.08,1.07.37,1.27.9.34.88.74,2.65.75,2.68.3.67,2.44-.1,2.36-.68,0-.02-.85-1.76-1.08-2.35-.2-.5.25-1.17.75-1.31,3.66-1.06,7.41-1.23,11.18-.93.75.06,1.47.1,2.23.24.79.15,1.51.29,2.3.44,1.04.19,1.76.52,2.81.74.23.07.28-.14.3-.24l.04-.12c.6-4.02,7.67-1.36,5.43,2.2,0,0-.04.1-.05.12-.06.12.02.19.02.19.7.5,1.4.9,2.22,1.42.06.03.15.1.23.05.37-.25.49-.65.79-.93.33-.32.69-.58,1.1-.79,1.74-.92,3.5-1.6,5.31-2.32.02,0,.03-.12,0-.14-14.23-9.44-27.32-6.45-32.9-4.85l-.09.03Z"/>
  </g>
  <g>
    <polygon class="cls-1" points="60.82 10.17 75.13 10.17 75.13 12.67 63.54 12.67 63.54 18.36 74.27 18.36 74.27 20.86 63.54 20.86 63.54 27.26 75.3 27.26 75.3 29.76 60.82 29.76 60.82 10.17"/>
    <path class="cls-1" d="m83.76,21.4c3.51.82,4.49,2.01,4.49,4.03,0,2.61-2.04,4.76-5.79,4.76-4.52,0-5.93-2.42-5.93-5.09h2.45c.06,1.36.54,2.86,3.81,2.86,1.85,0,2.96-.87,2.96-2.15,0-.93-.57-1.5-2.26-1.91l-2.78-.66c-2.07-.46-3.76-1.31-3.76-3.81s1.82-4.33,5.44-4.33c3.95,0,5.47,2.42,5.47,4.57h-2.45c-.13-1.09-.68-2.34-3.18-2.34-1.8,0-2.78.92-2.78,1.93,0,1.06.98,1.39,2.39,1.69l1.9.43Z"/>
    <path class="cls-1" d="m96.33,21.4c3.51.82,4.49,2.01,4.49,4.03,0,2.61-2.04,4.76-5.8,4.76-4.51,0-5.93-2.42-5.93-5.09h2.45c.05,1.36.54,2.86,3.81,2.86,1.85,0,2.96-.87,2.96-2.15,0-.93-.57-1.5-2.25-1.91l-2.78-.66c-2.07-.46-3.76-1.31-3.76-3.81s1.82-4.33,5.44-4.33c3.95,0,5.47,2.42,5.47,4.57h-2.45c-.13-1.09-.68-2.34-3.18-2.34-1.8,0-2.78.92-2.78,1.93,0,1.06.98,1.39,2.4,1.69l1.9.43Z"/>
    <path class="cls-1" d="m112.46,21.27c-.03-1.47-.98-3.92-3.76-3.92-2.26,0-3.62,1.11-3.97,3.92h7.73Zm2.37,3.78c-.19,2.12-2.04,5.14-6.12,5.14s-6.58-2.86-6.58-7.54,2.31-7.54,6.58-7.54c3.89,0,6.31,2.56,6.31,6.8,0,.49-.03.98-.06,1.42h-10.23c.08,3.32,1.85,4.62,3.97,4.62,2.47,0,3.32-1.8,3.67-2.91h2.45Z"/>
    <polygon class="cls-1" points="119.4 22.46 114.66 15.55 117.77 15.55 120.95 20.51 124.13 15.55 127.23 15.55 122.5 22.46 127.59 29.75 124.49 29.75 120.95 24.31 117.41 29.75 114.31 29.75 119.4 22.46"/>
    <path class="cls-1" d="m150.01,22.41c-.38,3.1-2.23,7.78-8.35,7.78-5.42,0-8.95-3.89-8.95-10.23s3.54-10.23,8.95-10.23c6.61,0,8.19,4.59,8.35,6.64h-2.72c-.41-1.58-1.55-4.08-5.36-4.08s-6.34,2.94-6.34,7.68,2.37,7.67,6.34,7.67,4.98-3.21,5.36-5.22h2.72Z"/>
    <path class="cls-1" d="m151.04,22.65c0-4.68,2.32-7.54,6.59-7.54s6.59,2.86,6.59,7.54-2.32,7.54-6.59,7.54-6.59-2.86-6.59-7.54m6.59,5.31c2.34,0,3.97-1.52,3.97-5.31s-1.63-5.3-3.97-5.3-3.97,1.52-3.97,5.3,1.63,5.31,3.97,5.31"/>
    <path class="cls-1" d="m175.17,27.99c-.76.65-2.05,2.2-4.96,2.2-2.61,0-4.24-1.47-4.24-5.17v-9.47h2.5v9.5c0,1.53.68,2.8,2.64,2.8s3.95-1.25,3.95-3.73v-8.57h2.5v14.2h-2.39v-1.77Z"/>
    <path class="cls-1" d="m180.09,15.55h2.39v1.77c.76-.66,2.04-2.2,4.95-2.2,2.45,0,4.24,1.47,4.24,5.17v9.47h-2.5v-9.49c0-1.47-.79-2.8-2.64-2.8-2.04,0-3.94,1.33-3.94,3.72v8.57h-2.5v-14.2Z"/>
    <path class="cls-1" d="m199.3,29.95c-.41,0-1.01.06-1.66.06-2.53,0-3.24-.85-3.24-3.62v-8.76h-1.88v-2.06h1.88v-3.81h2.5v3.81h2.34v2.06h-2.34v8.44c0,1.39.44,1.72,1.36,1.72.3,0,.79-.05,1.03-.05v2.23Z"/>
    <path class="cls-1" d="m207.65,31.31c-1.39,3.86-2.58,4.22-4.14,4.22-.6,0-1.2-.11-1.77-.22v-2.28c.44.13.98.22,1.49.22,1.36,0,1.83-1.58,2.4-3.21l-5.25-14.48h2.72l3.81,11.24h.06l3.73-11.24h2.67l-5.72,15.76Z"/>
    <path class="cls-1" d="m236.1,22.41c-.38,3.1-2.23,7.78-8.36,7.78-5.42,0-8.96-3.89-8.96-10.23s3.54-10.23,8.96-10.23c6.62,0,8.2,4.59,8.36,6.64h-2.72c-.41-1.58-1.55-4.08-5.36-4.08s-6.35,2.94-6.35,7.68,2.37,7.67,6.35,7.67,4.98-3.21,5.36-5.22h2.72Z"/>
    <path class="cls-1" d="m237.16,22.65c0-4.68,2.31-7.54,6.59-7.54s6.59,2.86,6.59,7.54-2.31,7.54-6.59,7.54-6.59-2.86-6.59-7.54m6.59,5.31c2.34,0,3.97-1.52,3.97-5.31s-1.63-5.3-3.97-5.3-3.97,1.52-3.97,5.3,1.63,5.31,3.97,5.31"/>
    <path class="cls-1" d="m261.05,27.99c-.76.65-2.04,2.2-4.95,2.2-2.61,0-4.24-1.47-4.24-5.17v-9.47h2.5v9.5c0,1.53.68,2.8,2.64,2.8s3.94-1.25,3.94-3.73v-8.57h2.5v14.2h-2.4v-1.77Z"/>
    <path class="cls-1" d="m265.59,15.55h2.39v1.77c.76-.66,2.04-2.2,4.95-2.2,2.45,0,4.24,1.47,4.24,5.17v9.47h-2.5v-9.49c0-1.47-.79-2.8-2.64-2.8-2.04,0-3.95,1.33-3.95,3.72v8.57h-2.5v-14.2Z"/>
    <path class="cls-1" d="m290.84,24.64c-.14,2.67-1.96,5.55-5.77,5.55-4.27,0-6.58-2.86-6.58-7.54s2.31-7.54,6.58-7.54,5.69,3.05,5.69,5.33h-2.45c-.11-1.3-.79-3.1-3.24-3.1s-3.97,1.52-3.97,5.31,1.63,5.31,3.97,5.31,3.13-2.26,3.32-3.32h2.45Z"/>
    <path class="cls-1" d="m292.11,15.55h2.5v14.2h-2.5v-14.2Zm0-5.39h2.5v2.78h-2.5v-2.78Z"/>
    <rect class="cls-1" x="296.82" y="10.17" width="2.5" height="19.59"/>
  </g>
</svg>