<svg id="Layer_1" data-name="Layer 1" xmlns="http://www.w3.org/2000/svg" viewBox="0 0 519.83 66.38"><defs><style>.cls-1{fill:#fff;}</style></defs><path class="cls-1" d="M47.73,62.79c-1.91.56-3.22,1.14-4.82,1.51a1.92,1.92,0,0,1-1.85-1.24c-.49-1.43-.59-3.09-1.16-4.37-.89-.85-4,.21-4,1.4.4,1.37,1.41,3,2,4.63a2.61,2.61,0,0,1,0,1.44,3.2,3.2,0,0,1-1.76,2.25,29,29,0,0,1-5.33,1.85c-2.52.64-4.89,1.3-7.34,2.07a.55.55,0,0,0-.35.38,4.16,4.16,0,0,0,.44,3.42c.43.77,1.18,2,2,1.69,3-1.31,5.84-2.79,8.9-4.1,1.49-.63,3-1.5,4.66-1.26A2.71,2.71,0,0,1,41.31,74a44,44,0,0,1,1.3,4.59c.54,1.14,4.25-.16,4.1-1.15,0,0-1.46-3-1.85-4a1.92,1.92,0,0,1,1.29-2.24,54.53,54.53,0,0,1,19.41-1.58,34.53,34.53,0,0,1,3.88.41c1.37.26,2.63.5,4,.74,1.8.34,3,.9,4.87,1.28.41.12.5-.25.53-.43l.07-.2c1-6.88,13.34-2.33,9.43,3.77a1.35,1.35,0,0,0-.08.21.25.25,0,0,0,0,.32c1.22.83,2.42,1.54,3.84,2.42.1,0,.27.18.41.09.63-.43.84-1.11,1.37-1.6a8.64,8.64,0,0,1,1.9-1.36,90.24,90.24,0,0,1,9.23-4s0-.19,0-.23C80.32,54.88,57.59,60,47.9,62.73Z" transform="translate(-22.84 -35.49)"/><path class="cls-1" d="M47.92,39.89C46,40.45,44.69,41,43.09,41.4a1.88,1.88,0,0,1-1.84-1.24c-.49-1.42-.61-3.08-1.17-4.35-.88-.87-4,.21-4,1.39.4,1.36,1.41,3,2,4.63a2.57,2.57,0,0,1,0,1.43,3.13,3.13,0,0,1-1.76,2.25A27.07,27.07,0,0,1,31,47.35c-2.5.66-4.88,1.31-7.32,2.07a.65.65,0,0,0-.37.39,4.2,4.2,0,0,0,.45,3.42c.43.78,1.18,2,2,1.69,3-1.31,5.83-2.79,8.9-4.09,1.49-.64,3-1.51,4.66-1.26a2.72,2.72,0,0,1,2.22,1.52c.58,1.52,1.27,4.55,1.3,4.59.54,1.14,4.23-.16,4.1-1.17,0,0-1.47-3-1.87-4a1.93,1.93,0,0,1,1.3-2.24,54.79,54.79,0,0,1,19.42-1.57,32.24,32.24,0,0,1,3.86.41l4,.74c1.8.33,3,.88,4.87,1.28.4.11.49-.27.53-.42l.07-.2c1-6.9,13.34-2.34,9.43,3.75a1,1,0,0,1-.09.2.27.27,0,0,0,0,.34c1.21.83,2.42,1.53,3.84,2.41.1.06.26.18.4.08.63-.41.86-1.09,1.37-1.58A8.78,8.78,0,0,1,96,52.33a87.7,87.7,0,0,1,9.23-3.95.3.3,0,0,0,0-.26C80.5,32,57.77,37.09,48.09,39.83Z" transform="translate(-22.84 -35.49)"/><path class="cls-1" d="M47.64,85.64c-1.92.56-3.23,1.14-4.82,1.51A1.9,1.9,0,0,1,41,85.91c-.5-1.43-.61-3.09-1.17-4.36-.89-.86-4,.21-4,1.39.4,1.36,1.41,3,2,4.64a2.51,2.51,0,0,1,0,1.41,3.21,3.21,0,0,1-1.76,2.28,28.69,28.69,0,0,1-5.33,1.84c-2.51.64-4.87,1.29-7.33,2.07a.58.58,0,0,0-.37.38A4.18,4.18,0,0,0,23.48,99c.43.79,1.17,2,2,1.7,3-1.31,5.83-2.8,8.9-4.1,1.48-.63,2.95-1.5,4.67-1.26a2.73,2.73,0,0,1,2.2,1.53c.59,1.52,1.28,4.54,1.3,4.59.53,1.14,4.24-.17,4.11-1.17,0,0-1.48-3-1.87-4A1.92,1.92,0,0,1,46.05,94a54.59,54.59,0,0,1,19.42-1.58,36.84,36.84,0,0,1,3.87.41l4,.75c1.81.33,3,.89,4.87,1.27.41.12.5-.25.53-.42l.07-.2c1-6.89,13.33-2.33,9.43,3.76l-.08.21a.23.23,0,0,0,0,.31c1.22.85,2.43,1.55,3.85,2.43.09,0,.26.18.4.09.63-.42.85-1.11,1.37-1.59a8.24,8.24,0,0,1,1.9-1.36,89.07,89.07,0,0,1,9.23-4s0-.2,0-.23c-24.71-16.15-47.45-11-57.14-8.29Z" transform="translate(-22.84 -35.49)"/><polygon class="cls-1" points="105.63 17.4 130.49 17.4 130.49 21.68 110.36 21.68 110.36 31.41 128.98 31.41 128.98 35.69 110.36 35.69 110.36 46.64 130.78 46.64 130.78 50.92 105.63 50.92 105.63 17.4"/><path class="cls-1" d="M168.31,72.12c6.09,1.39,7.79,3.44,7.79,6.89,0,4.47-3.54,8.15-10.06,8.15-7.85,0-10.3-4.15-10.3-8.71H160c.09,2.33.94,4.89,6.61,4.89,3.22,0,5.15-1.49,5.15-3.68,0-1.58-1-2.56-3.91-3.26L163,75.28c-3.59-.79-6.52-2.23-6.52-6.51s3.17-7.41,9.45-7.41c6.86,0,9.5,4.14,9.5,7.82h-4.25c-.24-1.86-1.18-4-5.53-4-3.12,0-4.82,1.58-4.82,3.3s1.7,2.38,4.16,2.89Z" transform="translate(-22.84 -35.49)"/><path class="cls-1" d="M190.13,72.12c6.1,1.39,7.8,3.44,7.8,6.89,0,4.47-3.54,8.15-10.07,8.15-7.84,0-10.3-4.15-10.3-8.71h4.26c.09,2.33.94,4.89,6.62,4.89,3.21,0,5.14-1.49,5.14-3.68,0-1.58-1-2.56-3.92-3.26l-4.82-1.12c-3.59-.79-6.52-2.23-6.52-6.51s3.17-7.41,9.45-7.41c6.85,0,9.5,4.14,9.5,7.82H193c-.24-1.86-1.19-4-5.53-4-3.12,0-4.82,1.58-4.82,3.3s1.7,2.38,4.16,2.89Z" transform="translate(-22.84 -35.49)"/><path class="cls-1" d="M222.27,78.35c-.34,3.64-3.55,8.8-10.64,8.8-7.42,0-11.43-4.88-11.43-12.89s4-12.9,11.43-12.9c6.76,0,11,4.38,11,11.64,0,.84,0,1.68-.1,2.42H204.73c.15,5.68,3.22,7.92,6.9,7.92,4.3,0,5.77-3.08,6.38-5Zm-4.11-6.46c0-2.52-1.7-6.71-6.53-6.71-3.92,0-6.28,1.91-6.9,6.71Z" transform="translate(-22.84 -35.49)"/><polygon class="cls-1" points="207.36 38.44 199.13 26.61 204.53 26.61 210.05 35.09 215.58 26.61 220.97 26.61 212.75 38.44 221.59 50.91 216.2 50.91 210.05 41.6 203.91 50.91 198.53 50.91 207.36 38.44"/><path class="cls-1" d="M283.36,73.84c-.67,5.31-3.88,13.32-14.51,13.32-9.41,0-15.55-6.66-15.55-17.51s6.14-17.51,15.55-17.51c11.49,0,14.22,7.87,14.51,11.36h-4.73c-.71-2.7-2.69-7-9.31-7-6.9,0-11,5-11,13.13s4.11,13.13,11,13.13c6.67,0,8.65-5.5,9.31-8.94Z" transform="translate(-22.84 -35.49)"/><path class="cls-1" d="M296.58,83.34c4.06,0,6.9-2.61,6.9-9.08s-2.84-9.08-6.9-9.08-6.9,2.61-6.9,9.08,2.83,9.08,6.9,9.08m-11.44-9.08c0-8,4-12.9,11.44-12.9S308,66.25,308,74.26s-4,12.89-11.44,12.89-11.44-4.88-11.44-12.89" transform="translate(-22.84 -35.49)"/><path class="cls-1" d="M327.06,83.39c-1.33,1.11-3.55,3.76-8.61,3.76-4.53,0-7.37-2.5-7.37-8.84V62.11h4.35V78.35c0,2.61,1.18,4.8,4.58,4.8,3.55,0,6.86-2.14,6.86-6.38V62.11h4.34v24.3h-4.15Z" transform="translate(-22.84 -35.49)"/><path class="cls-1" d="M335.6,62.11h4.16v3c1.33-1.12,3.55-3.77,8.61-3.77,4.25,0,7.37,2.52,7.37,8.85v16.2h-4.35V70.16c0-2.51-1.37-4.79-4.59-4.79-3.54,0-6.85,2.28-6.85,6.37V86.41H335.6Z" transform="translate(-22.84 -35.49)"/><path class="cls-1" d="M369,86.74c-.71,0-1.74.1-2.88.1-4.4,0-5.62-1.45-5.62-6.2v-15h-3.27V62.11h3.27V55.58h4.35v6.53h4.06v3.53h-4.06V80.08c0,2.37.75,2.93,2.36,2.93.52,0,1.37-.09,1.79-.09Z" transform="translate(-22.84 -35.49)"/><path class="cls-1" d="M383.46,89.07c-2.41,6.61-4.48,7.21-7.18,7.21a16.41,16.41,0,0,1-3.07-.37V92a9.38,9.38,0,0,0,2.6.37c2.36,0,3.17-2.7,4.16-5.49l-9.12-24.77h4.72l6.62,19.23h.1l6.47-19.23h4.63Z" transform="translate(-22.84 -35.49)"/><path class="cls-1" d="M432.87,73.84c-.65,5.31-3.87,13.32-14.51,13.32-9.42,0-15.56-6.66-15.56-17.51s6.14-17.51,15.56-17.51c11.49,0,14.23,7.87,14.51,11.36h-4.73c-.71-2.7-2.69-7-9.31-7-6.91,0-11,5-11,13.13s4.12,13.13,11,13.13c6.66,0,8.65-5.5,9.31-8.94Z" transform="translate(-22.84 -35.49)"/><path class="cls-1" d="M446.15,83.34c4.07,0,6.9-2.61,6.9-9.08s-2.83-9.08-6.9-9.08-6.9,2.61-6.9,9.08,2.84,9.08,6.9,9.08m-11.44-9.08c0-8,4-12.9,11.44-12.9s11.44,4.89,11.44,12.9-4,12.89-11.44,12.89-11.44-4.88-11.44-12.89" transform="translate(-22.84 -35.49)"/><path class="cls-1" d="M476.2,83.39c-1.33,1.11-3.54,3.76-8.6,3.76-4.54,0-7.37-2.5-7.37-8.84V62.11h4.34V78.35c0,2.61,1.18,4.8,4.59,4.8S476,81,476,76.77V62.11h4.35v24.3H476.2Z" transform="translate(-22.84 -35.49)"/><path class="cls-1" d="M484.09,62.11h4.16v3c1.32-1.12,3.54-3.77,8.6-3.77,4.25,0,7.37,2.52,7.37,8.85v16.2h-4.35V70.16c0-2.51-1.37-4.79-4.58-4.79-3.54,0-6.85,2.28-6.85,6.37V86.41h-4.35Z" transform="translate(-22.84 -35.49)"/><path class="cls-1" d="M527.94,77.66c-.24,4.56-3.4,9.49-10,9.49-7.42,0-11.44-4.88-11.44-12.89s4-12.9,11.44-12.9,9.88,5.22,9.88,9.12h-4.26c-.19-2.23-1.36-5.3-5.62-5.3-4.06,0-6.9,2.61-6.9,9.08s2.84,9.08,6.9,9.08,5.43-3.86,5.76-5.68Z" transform="translate(-22.84 -35.49)"/><path class="cls-1" d="M530.15,52.89h4.35v4.75h-4.35Zm0,9.22h4.35v24.3h-4.35Z" transform="translate(-22.84 -35.49)"/><rect class="cls-1" x="515.48" y="17.4" width="4.35" height="33.52"/></svg>