<svg id="Layer_1" data-name="Layer 1" xmlns="http://www.w3.org/2000/svg" viewBox="0 0 304 146.85"><defs><style>.cls-1{fill:#fff;}</style></defs><polygon class="cls-1" points="0 114.52 18.24 114.52 18.24 117.71 3.47 117.71 3.47 124.96 17.14 124.96 17.14 128.15 3.47 128.15 3.47 136.31 18.45 136.31 18.45 139.5 0 139.5 0 114.52"/><path class="cls-1" d="M91.89,178.42c4.48,1,5.72,2.57,5.72,5.14,0,3.32-2.59,6.06-7.38,6.06-5.76,0-7.56-3.08-7.56-6.48h3.12c.07,1.74.69,3.64,4.85,3.64,2.36,0,3.78-1.1,3.78-2.74,0-1.18-.72-1.91-2.87-2.43L88,180.78c-2.64-.59-4.79-1.67-4.79-4.85s2.33-5.52,6.94-5.52c5,0,7,3.09,7,5.83H94c-.18-1.39-.87-3-4.06-3-2.29,0-3.54,1.17-3.54,2.46s1.25,1.77,3,2.15Z" transform="translate(-62.65 -49.58)"/><path class="cls-1" d="M107.91,178.42c4.48,1,5.73,2.57,5.73,5.14,0,3.32-2.6,6.06-7.39,6.06-5.76,0-7.56-3.08-7.56-6.48h3.12c.07,1.74.69,3.64,4.86,3.64,2.35,0,3.77-1.1,3.77-2.74,0-1.18-.72-1.91-2.87-2.43l-3.54-.83c-2.64-.59-4.79-1.67-4.79-4.85s2.33-5.52,6.94-5.52c5,0,7,3.09,7,5.83H110c-.17-1.39-.87-3-4.06-3-2.29,0-3.54,1.17-3.54,2.46s1.25,1.77,3.06,2.15Z" transform="translate(-62.65 -49.58)"/><path class="cls-1" d="M131.5,183.07a7.45,7.45,0,0,1-7.8,6.55c-5.45,0-8.4-3.63-8.4-9.6s3-9.61,8.4-9.61c5,0,8,3.26,8,8.67,0,.63,0,1.25-.07,1.8h-13c.11,4.24,2.36,5.9,5.07,5.9a4.7,4.7,0,0,0,4.68-3.71Zm-3-4.82c0-1.87-1.25-5-4.78-5-2.88,0-4.62,1.42-5.07,5Z" transform="translate(-62.65 -49.58)"/><polygon class="cls-1" points="74.67 130.2 68.63 121.39 72.59 121.39 76.64 127.7 80.7 121.39 84.66 121.39 78.62 130.2 85.11 139.49 81.15 139.49 76.64 132.56 72.14 139.49 68.18 139.49 74.67 130.2"/><path class="cls-1" d="M176.34,179.71c-.49,3.95-2.85,9.92-10.65,9.92-6.9,0-11.41-5-11.41-13s4.51-13,11.41-13c8.43,0,10.44,5.86,10.65,8.47h-3.47c-.52-2-2-5.21-6.83-5.21-5.07,0-8.08,3.75-8.08,9.78s3,9.78,8.08,9.78c4.89,0,6.34-4.09,6.83-6.65Z" transform="translate(-62.65 -49.58)"/><path class="cls-1" d="M186.05,186.78c3,0,5.06-1.94,5.06-6.76s-2.08-6.76-5.06-6.76S181,175.2,181,180s2.08,6.76,5.07,6.76m-8.4-6.76c0-6,2.95-9.61,8.4-9.61s8.39,3.64,8.39,9.61-2.95,9.6-8.39,9.6-8.4-3.64-8.4-9.6" transform="translate(-62.65 -49.58)"/><path class="cls-1" d="M208.41,186.82a8.41,8.41,0,0,1-6.31,2.8c-3.33,0-5.41-1.87-5.41-6.58V171h3.19v12.11c0,1.94.87,3.57,3.36,3.57s5-1.59,5-4.75V171h3.19v18.11h-3.05Z" transform="translate(-62.65 -49.58)"/><path class="cls-1" d="M214.69,171h3.05v2.26a8.41,8.41,0,0,1,6.31-2.81c3.12,0,5.41,1.87,5.41,6.59v12.07h-3.19V177c0-1.88-1-3.58-3.36-3.58a4.74,4.74,0,0,0-5,4.75v10.93h-3.19Z" transform="translate(-62.65 -49.58)"/><path class="cls-1" d="M239.17,189.32c-.52,0-1.28.06-2.11.06-3.23,0-4.13-1.07-4.13-4.61V173.6h-2.39V171h2.39v-4.85h3.19V171h3v2.64h-3v10.75c0,1.77.56,2.19,1.74,2.19.38,0,1-.07,1.31-.07Z" transform="translate(-62.65 -49.58)"/><path class="cls-1" d="M249.82,191.05c-1.77,4.92-3.3,5.38-5.27,5.38a12,12,0,0,1-2.26-.28v-2.91a6.83,6.83,0,0,0,1.91.27c1.73,0,2.32-2,3.05-4.09L240.56,171H244l4.86,14.33H249L253.7,171h3.4Z" transform="translate(-62.65 -49.58)"/><path class="cls-1" d="M286.07,179.71c-.49,3.95-2.85,9.92-10.65,9.92-6.9,0-11.41-5-11.41-13s4.51-13,11.41-13c8.43,0,10.44,5.86,10.65,8.47H282.6c-.52-2-2-5.21-6.84-5.21-5.06,0-8.08,3.75-8.08,9.78s3,9.78,8.08,9.78c4.89,0,6.35-4.09,6.84-6.65Z" transform="translate(-62.65 -49.58)"/><path class="cls-1" d="M295.81,186.78c3,0,5.06-1.94,5.06-6.76s-2.08-6.76-5.06-6.76-5.07,1.94-5.07,6.76,2.08,6.76,5.07,6.76m-8.4-6.76c0-6,2.95-9.61,8.4-9.61s8.39,3.64,8.39,9.61-2.95,9.6-8.39,9.6-8.4-3.64-8.4-9.6" transform="translate(-62.65 -49.58)"/><path class="cls-1" d="M317.86,186.82a8.41,8.41,0,0,1-6.31,2.8c-3.33,0-5.41-1.87-5.41-6.58V171h3.19v12.11c0,1.94.87,3.57,3.37,3.57s5-1.59,5-4.75V171h3.2v18.11h-3.06Z" transform="translate(-62.65 -49.58)"/><path class="cls-1" d="M323.65,171h3.06v2.26a8.41,8.41,0,0,1,6.31-2.81c3.12,0,5.41,1.87,5.41,6.59v12.07h-3.19V177c0-1.88-1-3.58-3.36-3.58a4.74,4.74,0,0,0-5,4.75v10.93h-3.19Z" transform="translate(-62.65 -49.58)"/><path class="cls-1" d="M355.84,182.55a7.13,7.13,0,0,1-7.36,7.07c-5.44,0-8.39-3.64-8.39-9.6s3-9.61,8.39-9.61,7.26,3.89,7.26,6.8h-3.13c-.14-1.67-1-4-4.13-4s-5.06,1.94-5.06,6.76,2.08,6.76,5.06,6.76,4-2.87,4.24-4.23Z" transform="translate(-62.65 -49.58)"/><path class="cls-1" d="M357.46,164.1h3.19v3.54h-3.19Zm0,6.86h3.19v18.11h-3.19Z" transform="translate(-62.65 -49.58)"/><rect class="cls-1" x="300.81" y="114.52" width="3.19" height="24.97"/><path class="cls-1" d="M190.16,90.24c-2.8.84-4.73,1.71-7.07,2.26-1,.24-2.35-.82-2.71-1.85-.73-2.13-.89-4.6-1.71-6.49-1.31-1.29-5.88.31-5.89,2.07.59,2,2.07,4.48,2.91,6.9a4,4,0,0,1,.05,2.13,4.78,4.78,0,0,1-2.58,3.37,41.54,41.54,0,0,1-7.83,2.75c-3.69,1-7.16,1.93-10.76,3.08a.88.88,0,0,0-.54.57,6.33,6.33,0,0,0,.68,5.09c.62,1.16,1.71,2.93,2.89,2.53,4.45-2,8.57-4.17,13.06-6.11,2.18-1,4.33-2.25,6.84-1.88a4,4,0,0,1,3.24,2.27,66,66,0,0,1,1.91,6.84c.79,1.7,6.24-.25,6-1.74,0,0-2.17-4.49-2.75-6-.49-1.26.65-3,1.91-3.33,9.33-2.7,18.9-3.13,28.5-2.37A50.85,50.85,0,0,1,222,101l5.87,1.1c2.64.49,4.46,1.33,7.14,1.9.59.17.73-.38.78-.63l.1-.29c1.54-10.27,19.59-3.48,13.85,5.59a2.69,2.69,0,0,1-.13.31.37.37,0,0,0,.06.49c1.79,1.25,3.56,2.28,5.65,3.6.14.09.39.27.59.14.93-.64,1.25-1.65,2-2.38a12.34,12.34,0,0,1,2.79-2,128.09,128.09,0,0,1,13.54-5.9c.06,0,.08-.31,0-.36-36.27-24-69.65-16.45-83.87-12.36Z" transform="translate(-62.65 -49.58)"/><path class="cls-1" d="M190.44,56.13c-2.81.84-4.73,1.7-7.08,2.26-1,.23-2.35-.82-2.7-1.85-.74-2.13-.89-4.61-1.72-6.5-1.3-1.28-5.88.31-5.89,2.07.59,2,2.08,4.48,2.91,6.91a3.82,3.82,0,0,1,.06,2.12,4.75,4.75,0,0,1-2.58,3.37,40.17,40.17,0,0,1-7.83,2.75c-3.69,1-7.16,1.94-10.76,3.09a.83.83,0,0,0-.54.57A6.26,6.26,0,0,0,155,76c.62,1.17,1.72,2.93,2.9,2.53,4.45-2,8.56-4.16,13.05-6.1,2.18-1,4.34-2.25,6.84-1.88A4,4,0,0,1,181,72.82c.87,2.26,1.88,6.77,1.91,6.84.79,1.7,6.23-.25,6-1.75,0,0-2.16-4.49-2.75-6-.49-1.26.65-3,1.92-3.34,9.33-2.7,18.89-3.12,28.5-2.36a53.27,53.27,0,0,1,5.68.62L228.18,68c2.63.49,4.46,1.32,7.13,1.9.6.17.73-.38.78-.63l.1-.3c1.54-10.26,19.59-3.47,13.86,5.6,0,0-.1.25-.13.31a.38.38,0,0,0,.05.49c1.79,1.24,3.57,2.28,5.65,3.59.15.09.39.28.6.14.93-.63,1.24-1.64,2-2.38a12.39,12.39,0,0,1,2.79-2,126.32,126.32,0,0,1,13.54-5.9c.05,0,.07-.31,0-.36C238.28,44.35,204.9,52,190.69,56.05Z" transform="translate(-62.65 -49.58)"/><path class="cls-1" d="M190,124.29c-2.81.83-4.73,1.7-7.07,2.26-1,.23-2.36-.83-2.71-1.86-.73-2.13-.89-4.6-1.71-6.49-1.31-1.28-5.89.31-5.9,2.07.6,2,2.08,4.48,2.92,6.9a4,4,0,0,1,0,2.13,4.74,4.74,0,0,1-2.58,3.37,40.17,40.17,0,0,1-7.83,2.75c-3.69,1-7.16,1.94-10.76,3.08a.9.9,0,0,0-.54.57,6.32,6.32,0,0,0,.68,5.09c.62,1.16,1.71,2.93,2.89,2.53,4.45-1.95,8.56-4.16,13.06-6.11,2.17-.94,4.33-2.24,6.84-1.87A4,4,0,0,1,180.6,141a67.45,67.45,0,0,1,1.91,6.84c.79,1.7,6.23-.24,6-1.74,0,0-2.16-4.49-2.74-6-.5-1.26.64-3,1.91-3.34,9.33-2.7,18.89-3.12,28.5-2.36a50.8,50.8,0,0,1,5.68.62l5.87,1.1c2.64.5,4.46,1.33,7.14,1.91.59.16.72-.38.78-.63l.1-.3c1.54-10.27,19.58-3.47,13.85,5.6,0,0-.1.25-.13.31a.38.38,0,0,0,.06.49c1.79,1.24,3.56,2.28,5.65,3.59.14.09.39.28.59.14.93-.63,1.25-1.65,2-2.38a12.61,12.61,0,0,1,2.79-2,127.28,127.28,0,0,1,13.54-5.91c.06,0,.07-.3,0-.35-36.27-24.06-69.65-16.45-83.87-12.36Z" transform="translate(-62.65 -49.58)"/></svg>