<?xml version="1.0" standalone="no"?>
<!DOCTYPE svg PUBLIC "-//W3C//DTD SVG 20010904//EN"
 "http://www.w3.org/TR/2001/REC-SVG-20010904/DTD/svg10.dtd">
<svg version="1.0" xmlns="http://www.w3.org/2000/svg"
 width="896.000000pt" height="896.000000pt" viewBox="0 0 896.000000 896.000000"
 preserveAspectRatio="xMidYMid meet">
<metadata>
Created by potrace 1.14, written by Peter Selinger 2001-2017
</metadata>
<g transform="translate(0.000000,896.000000) scale(0.100000,-0.100000)"
fill="#000000" stroke="none">
<path d="M1555 8123 c-16 -9 -35 -22 -43 -29 -7 -8 -17 -14 -21 -14 -4 0 -17
-17 -29 -38 -28 -50 -20 -77 88 -307 104 -220 122 -269 122 -327 0 -96 -47
-206 -115 -271 -35 -34 -141 -99 -166 -103 -9 -1 -62 -23 -86 -34 -52 -26
-382 -129 -465 -145 -8 -2 -16 -4 -17 -5 -2 -2 -6 -3 -10 -4 -5 -1 -14 -5 -20
-9 -7 -5 -13 -6 -13 -3 0 3 -12 1 -27 -5 -16 -6 -37 -13 -47 -15 -11 -2 -63
-17 -115 -33 -139 -42 -213 -64 -234 -68 -10 -1 -46 -12 -80 -22 -50 -16 -132
-40 -157 -46 -37 -8 -51 -22 -65 -60 -18 -45 -23 -143 -12 -207 9 -50 44 -141
65 -170 10 -13 24 -36 32 -52 23 -46 87 -113 117 -124 43 -14 22 -22 318 118
44 21 114 54 155 73 41 19 118 55 170 79 52 25 120 57 150 71 30 13 105 48
165 77 158 76 258 121 275 126 8 2 42 13 75 24 82 29 212 33 284 10 66 -22
128 -65 158 -109 22 -33 89 -227 108 -311 7 -33 40 -166 51 -205 8 -30 23 -56
36 -64 49 -31 175 -17 283 32 55 24 62 29 106 69 35 33 35 41 7 104 -12 27
-23 51 -23 54 -1 3 -12 28 -25 55 -13 28 -23 53 -22 58 1 4 -2 7 -8 7 -5 0
-10 5 -10 10 0 11 -60 144 -86 193 -20 35 -20 93 -1 138 35 84 89 121 227 155
242 59 293 71 355 79 17 3 41 7 55 10 45 10 66 13 120 20 29 4 62 8 73 11 10
2 45 6 76 9 31 3 70 8 86 10 17 2 64 7 105 11 41 3 95 8 120 10 64 6 39 6 440
7 173 0 355 -3 405 -6 149 -11 238 -18 280 -23 22 -2 60 -7 85 -9 25 -3 61 -7
80 -10 19 -3 64 -7 99 -10 36 -3 97 -12 135 -20 39 -8 85 -16 101 -18 17 -3
37 -7 45 -10 8 -3 31 -8 50 -11 54 -7 232 -43 281 -56 24 -7 51 -14 59 -15 8
-2 15 -4 15 -5 0 -1 7 -3 15 -5 8 -1 69 -19 135 -38 66 -20 132 -39 148 -42
15 -3 38 -7 51 -10 29 -6 42 9 50 59 11 70 18 90 54 159 80 156 230 232 434
222 90 -4 102 -6 186 -31 205 -59 382 -223 428 -396 27 -104 11 -215 -50 -331
-41 -79 -44 -98 -16 -112 12 -6 62 -37 113 -70 51 -32 139 -90 197 -127 58
-37 114 -68 124 -68 21 0 81 60 91 91 4 10 11 19 16 19 5 0 9 6 9 12 0 18 105
115 165 153 90 58 453 235 480 235 8 0 16 4 19 9 3 4 27 16 53 26 26 10 66 26
88 36 22 10 110 46 195 79 252 99 258 102 254 114 -10 23 -335 228 -594 373
-151 85 -542 277 -700 343 -69 29 -138 58 -155 65 -39 17 -99 40 -105 41 -3 0
-18 6 -35 13 -37 15 -135 51 -155 56 -19 5 -200 65 -220 72 -31 12 -312 92
-347 99 -12 2 -34 9 -48 14 -14 5 -25 7 -25 5 0 -2 -11 0 -26 5 -14 6 -39 12
-57 15 -18 3 -60 12 -93 20 -75 17 -109 24 -149 31 -16 3 -41 7 -55 10 -28 5
-191 33 -230 39 -14 2 -44 6 -67 10 -23 4 -57 8 -75 10 -49 4 -149 16 -183 21
-16 3 -52 6 -80 8 -27 2 -106 7 -175 12 -235 17 -864 10 -1055 -12 -22 -2 -67
-7 -100 -9 -33 -3 -73 -7 -90 -10 -16 -2 -59 -7 -95 -10 -36 -3 -72 -8 -80
-10 -8 -2 -37 -7 -65 -10 -27 -4 -57 -8 -65 -10 -8 -2 -35 -7 -60 -10 -69 -9
-102 -15 -135 -22 -16 -3 -39 -7 -50 -9 -11 -1 -20 -3 -20 -4 0 -1 -9 -3 -20
-4 -11 -2 -45 -8 -75 -15 -30 -6 -66 -13 -80 -16 -14 -3 -36 -7 -50 -10 -14
-3 -34 -7 -46 -9 -17 -3 -104 -25 -399 -100 -5 -1 -30 -9 -55 -16 -54 -16 -59
-17 -85 -24 -11 -2 -40 -11 -65 -19 -70 -24 -374 -121 -385 -123 -5 -1 -32 -9
-60 -18 -27 -9 -61 -16 -75 -16 -46 0 -123 59 -153 116 -19 36 -52 168 -71
277 -6 38 -48 181 -57 200 -9 15 -27 17 -157 17 -115 -1 -153 -4 -177 -17z"/>
<path d="M1650 5638 c-116 -32 -212 -98 -222 -152 -5 -25 24 -109 72 -211 148
-315 166 -372 145 -462 -3 -13 -7 -31 -9 -41 -18 -82 -103 -185 -185 -227
-136 -69 -440 -176 -570 -201 -13 -3 -39 -11 -57 -19 -19 -8 -34 -12 -34 -10
0 2 -18 -2 -40 -10 -22 -8 -42 -14 -45 -14 -3 0 -31 -8 -63 -18 -31 -9 -61
-18 -67 -19 -5 -2 -41 -12 -80 -24 -38 -11 -79 -23 -90 -25 -11 -3 -42 -11
-70 -19 -27 -9 -88 -26 -135 -40 -47 -14 -97 -28 -112 -32 -34 -8 -52 -36 -65
-101 -10 -50 -10 -71 0 -158 5 -45 40 -135 69 -177 10 -14 18 -29 18 -33 0
-11 61 -87 90 -112 13 -13 36 -27 51 -32 29 -10 63 3 283 108 71 34 140 64
153 67 13 4 23 9 23 13 0 7 57 34 80 38 8 1 16 7 18 12 2 6 9 11 15 11 11 0
40 13 202 90 55 26 118 55 140 65 22 10 95 44 163 77 68 32 135 61 150 65 15
3 29 9 32 12 14 17 143 39 220 37 152 -3 255 -71 299 -198 12 -34 25 -70 28
-78 3 -8 7 -19 9 -25 1 -5 23 -91 49 -190 26 -99 51 -187 56 -196 9 -18 70
-36 109 -33 43 3 111 15 134 23 11 5 23 8 26 8 3 0 16 6 30 13 14 8 28 13 33
12 4 -1 7 2 7 8 0 5 7 10 15 10 8 0 15 4 15 9 0 5 9 12 19 16 11 3 26 21 35
40 16 33 16 35 -20 112 -20 43 -51 110 -69 148 -18 39 -47 101 -65 140 -18 38
-33 75 -34 82 -1 7 -5 15 -9 19 -3 3 -4 25 -1 48 10 69 66 143 130 170 28 12
234 68 294 80 14 3 36 7 50 10 14 3 41 9 60 12 37 7 56 11 93 19 12 3 40 7 62
10 22 2 51 7 65 10 29 6 65 11 140 20 30 4 66 8 80 10 26 3 122 12 220 20 306
27 859 17 1175 -21 22 -3 63 -7 90 -9 28 -3 70 -7 95 -10 25 -3 69 -7 99 -10
30 -3 57 -8 60 -10 4 -2 25 -6 47 -9 43 -7 74 -12 114 -21 14 -3 39 -7 55 -10
17 -3 75 -14 130 -26 55 -11 111 -23 125 -25 36 -7 101 -24 130 -33 14 -5 50
-16 80 -25 30 -8 80 -23 110 -33 30 -9 58 -16 61 -16 3 1 26 -4 50 -11 72 -20
87 -9 95 74 1 14 3 25 4 25 1 0 3 7 5 15 28 111 119 229 210 270 108 49 246
64 367 39 70 -14 183 -56 230 -86 21 -12 40 -23 44 -23 3 0 11 -6 19 -12 7 -7
32 -29 56 -48 23 -19 62 -61 85 -93 86 -117 108 -232 72 -387 -2 -7 -22 -52
-46 -98 -40 -80 -41 -86 -26 -104 10 -10 21 -18 26 -18 6 0 20 -8 33 -17 33
-26 45 -34 200 -133 77 -49 145 -94 152 -99 32 -29 85 10 143 104 59 96 161
167 405 285 105 50 204 99 220 108 17 9 32 16 35 15 6 -1 45 14 85 32 16 8 70
30 118 50 48 20 100 41 115 47 15 6 32 12 37 14 16 3 238 93 242 97 8 8 -10
37 -22 37 -7 0 -15 4 -17 8 -3 8 -72 53 -243 159 -28 17 -68 41 -88 52 -20 12
-52 29 -69 39 -62 35 -143 81 -208 116 -81 45 -342 174 -435 215 -39 17 -81
38 -95 45 -14 8 -28 15 -33 15 -4 0 -24 8 -45 17 -43 18 -256 104 -322 129
-25 9 -106 37 -180 62 -74 25 -142 47 -150 51 -8 3 -17 6 -20 6 -3 1 -11 5
-17 9 -7 5 -13 6 -13 3 0 -3 -12 -1 -27 5 -16 6 -35 12 -44 14 -9 2 -47 12
-85 24 -64 19 -318 84 -374 95 -14 3 -45 10 -70 16 -55 12 -75 16 -120 24 -19
3 -46 9 -60 12 -14 3 -36 7 -50 9 -66 9 -114 17 -133 21 -23 5 -76 12 -137 19
-19 2 -46 6 -60 9 -48 9 -115 17 -179 21 -35 3 -85 7 -110 10 -311 32 -907 33
-1211 1 -30 -3 -80 -8 -110 -11 -78 -7 -149 -14 -190 -20 -19 -2 -57 -7 -85
-11 -27 -3 -59 -8 -70 -10 -11 -2 -38 -7 -60 -10 -51 -6 -120 -18 -175 -29
-23 -5 -47 -9 -110 -19 -53 -9 -240 -49 -335 -72 -55 -14 -109 -26 -120 -29
-11 -2 -38 -9 -60 -15 -22 -6 -49 -13 -60 -15 -11 -3 -92 -25 -180 -49 -88
-24 -259 -72 -380 -105 -157 -43 -229 -59 -252 -55 -18 4 -33 10 -33 15 0 5
-6 9 -12 9 -7 1 -22 8 -33 18 -55 47 -78 106 -130 342 -26 120 -32 145 -35
145 -1 0 -3 7 -5 16 -18 93 -104 125 -235 87z"/>
<path d="M1707 3134 c-1 -2 -14 -5 -27 -8 -51 -10 -66 -15 -95 -27 -32 -13
-40 -16 -53 -18 -5 0 -18 -9 -30 -18 -11 -10 -32 -26 -46 -37 -46 -34 -52 -78
-19 -156 3 -8 7 -17 8 -20 7 -20 31 -76 59 -135 118 -248 135 -297 132 -376
-7 -135 -77 -249 -191 -311 -106 -56 -381 -158 -522 -192 -32 -8 -137 -37
-233 -66 -96 -28 -182 -53 -190 -55 -8 -2 -87 -24 -175 -50 -157 -47 -207 -61
-253 -72 -45 -11 -64 -66 -66 -188 -2 -89 28 -180 91 -278 58 -91 89 -124 132
-143 30 -13 37 -12 77 5 24 11 44 17 44 13 0 -4 4 -1 9 6 4 7 14 15 22 16 8 1
57 23 109 48 197 95 313 148 321 148 5 0 9 5 9 10 0 6 3 9 8 8 4 -1 33 10 65
25 32 15 62 27 67 27 6 0 10 5 10 10 0 6 6 10 14 10 7 0 74 29 147 64 289 137
361 168 459 193 44 12 208 7 237 -6 83 -39 100 -48 126 -74 31 -30 77 -121 77
-153 0 -11 4 -24 8 -30 5 -5 19 -47 31 -94 13 -47 27 -96 32 -110 5 -14 10
-36 11 -50 2 -14 6 -30 10 -35 4 -6 9 -29 11 -52 6 -50 21 -79 48 -94 33 -17
119 -18 174 -1 28 9 56 17 63 18 30 6 122 58 145 83 36 39 37 52 9 112 -14 30
-26 56 -27 59 -1 3 -15 34 -32 70 -16 36 -43 92 -58 125 -15 33 -39 84 -53
113 -19 41 -23 61 -18 93 11 68 41 114 102 157 26 18 223 77 289 87 11 1 27 5
35 9 8 3 29 8 45 10 17 2 66 11 110 20 116 22 189 34 250 41 22 2 40 4 40 5 0
3 33 7 100 14 39 3 88 8 110 10 137 15 589 34 625 26 3 0 82 -3 175 -5 94 -3
199 -7 235 -9 171 -12 226 -17 240 -21 8 -2 50 -6 92 -10 42 -3 87 -8 100 -11
13 -2 51 -6 85 -9 34 -2 66 -6 70 -8 4 -3 26 -8 48 -11 22 -4 98 -18 169 -32
72 -13 146 -27 165 -30 20 -3 39 -8 42 -10 4 -2 23 -6 42 -9 20 -4 76 -17 124
-31 48 -14 95 -27 103 -29 8 -2 15 -4 15 -5 0 -1 9 -3 19 -5 10 -2 40 -10 65
-19 25 -8 57 -17 71 -20 14 -3 43 -10 65 -15 45 -11 69 2 73 41 15 147 101
283 219 343 85 44 146 55 268 51 84 -3 128 -10 188 -30 120 -40 209 -91 283
-163 82 -80 132 -166 151 -260 7 -39 10 -133 3 -133 -3 0 -6 -13 -7 -30 -2
-34 -37 -119 -71 -173 -13 -22 -21 -45 -18 -53 3 -8 58 -49 123 -91 65 -42
162 -105 215 -139 54 -35 106 -64 116 -64 20 0 71 50 92 90 20 37 72 95 121
135 94 78 291 180 599 311 58 25 119 51 135 58 17 8 113 46 215 86 102 40 191
78 199 85 12 12 7 18 -34 42 -26 15 -53 34 -60 40 -8 7 -20 13 -27 13 -8 0
-18 4 -24 9 -9 9 -34 24 -155 91 -122 68 -493 247 -649 314 -85 37 -164 71
-175 76 -113 50 -628 230 -775 271 -62 17 -58 16 -120 34 -64 18 -49 15 -215
55 -71 18 -137 34 -145 37 -8 2 -16 4 -17 4 -2 1 -29 7 -61 14 -33 8 -70 16
-83 19 -13 2 -35 7 -49 10 -14 3 -36 8 -50 10 -14 3 -50 10 -80 16 -30 6 -71
13 -90 16 -19 3 -42 7 -50 9 -8 3 -37 7 -65 10 -27 3 -57 8 -65 10 -14 4 -54
11 -125 20 -16 2 -50 6 -75 10 -25 3 -61 8 -80 10 -19 2 -55 6 -80 9 -25 3
-76 8 -115 11 -38 3 -90 8 -115 10 -93 8 -218 17 -310 21 -174 7 -765 3 -765
-5 0 -1 -38 -4 -85 -6 -89 -5 -188 -12 -255 -19 -22 -2 -67 -7 -100 -10 -33
-4 -70 -8 -82 -10 -12 -3 -49 -7 -82 -11 -33 -3 -70 -8 -83 -11 -13 -2 -43 -7
-68 -9 -25 -3 -52 -8 -60 -10 -8 -2 -35 -7 -60 -11 -72 -10 -347 -65 -415 -82
-22 -6 -51 -13 -65 -16 -37 -6 -241 -61 -418 -112 -263 -76 -343 -95 -365 -89
-107 30 -152 98 -191 285 -12 60 -55 229 -69 275 -20 64 -35 75 -110 85 -26 4
-48 5 -50 4z"/>
</g>
</svg>
